<?xml version="1.0" encoding="utf-8"?>
<!-- Generator: Adobe Illustrator 26.0.1, SVG Export Plug-In . SVG Version: 6.00 Build 0)  -->
<svg version="1.1" id="Camada_1" xmlns="http://www.w3.org/2000/svg" xmlns:xlink="http://www.w3.org/1999/xlink" x="0px" y="0px"
	 viewBox="0 0 512 512" style="enable-background:new 0 0 512 512;" xml:space="preserve">
<style type="text/css">
	.st0{fill:#FFFFFF;}
</style>
<path class="st0" d="M330.3,256c0,41-33.3,74.3-74.3,74.3S181.7,297,181.7,256s33.3-74.3,74.3-74.3S330.3,215,330.3,256z
	 M149.1,214.1H3.5C23.4,92.6,128.9,0,256,0s232.6,92.6,252.5,214.1H362.9c-16.7-42.6-58.3-72.8-106.9-72.8
	C207.4,141.2,165.9,171.4,149.1,214.1z M362.9,297.9h145.7C488.6,419.4,383.1,512,256,512C128.9,512,23.4,419.4,3.5,297.9h145.7
	c16.7,42.6,58.2,72.8,106.8,72.8C304.6,370.7,346.1,340.6,362.9,297.9z"/>
</svg>
